:SAMPLES-PER-SECOND 24
:FULLY-SPECIFIED
:DEGREES
533
root  -4.44975 38.1213 68.4642 -171.343 -71.8032 165.654
RightUpLeg  -4.86444 -8.87866 -5.49343
RightLeg  36.1795 6.54266 4.90137
RightFoot  -21.0781 -0.474134 -3.93934
RightToes  -1.46203e-006 3.27826e-006 1.63871e-007
Spine  5.83939 -2.07065 1.7125
Spine1  12.8233 -0.902813 -5.36606
HEad  -20.477 -45.1029 17.1606
LeftShoulder1  1.68664 -2.66204 -20.9344
LeftArm  9.33669 6.02524 -39.1141
LeftForeArm  57.1085 -78.5427 -66.5009
LeftHand  0.569936 9.73709 15.7634
RightShoulder  2.5891 4.8224 25.0177
RightArm  -23.8043 -11.98 19.5109
RightForeArm  62.75 78.7013 66.5372
RightHand  -0.340527 -3.03338 -16.6151
LeftUpLeg  -10.609 21.2798 7.8215
LeftLeg  35.7189 -3.85609 -2.60916
LeftFoot  -6.88138 0.520003 -13.0762
LeftToes  1.24767e-006 1.47042e-008 1.32732e-009
534
root  -4.56644 39.2361 68.7626 -165.58 -76.1544 160.657
RightUpLeg  -2.30007 -12.221 -6.86509
RightLeg  29.94 7.53176 4.46225
RightFoot  -14.5497 -0.140272 -2.30276
RightToes  -1.46203e-006 3.27826e-006 1.63871e-007
Spine  5.10541 -2.59196 -1.1601
Spine1  12.477 -2.40884 -1.78178
HEad  -19.8069 -46.6769 17.3036
LeftShoulder1  1.82458 -2.9573 -21.9022
LeftArm  8.58021 10.0789 -43.4747
LeftForeArm  60.9097 -78.8631 -71.7917
LeftHand  0.659309 9.8044 17.7382
RightShoulder  2.93117 5.16724 27.846
RightArm  -22.4602 -17.5275 24.7839
RightForeArm  27.6443 64.8111 22.0316
RightHand  0.0672854 -5.73356 -22.8513
LeftUpLeg  -11.4654 22.5158 6.61719
LeftLeg  31.9719 -7.78775 -4.85568
LeftFoot  3.33623 1.59947 -12.5525
LeftToes  1.24767e-006 1.47042e-008 1.32732e-009
535
root  -4.88846 40.941 69.1628 -158.282 -79.3103 153.971
RightUpLeg  1.75705 -17.2896 -9.74414
RightLeg  21.2187 13.389 5.46638
RightFoot  -2.78724 -0.273699 3.4038
RightToes  -1.46203e-006 3.27826e-006 1.63871e-007
Spine  4.64184 -2.8818 -3.23615
Spine1  11.267 -3.29778 0.867603
HEad  -18.2969 -47.9714 17.4726
LeftShoulder1  1.76142 -2.88289 -21.1963
LeftArm  10.9905 15.3759 -46.3077
LeftForeArm  70.8518 -79.2639 -83.4481
LeftHand  0.558208 9.31947 16.9804
RightShoulder  3.10962 5.25786 29.5788
RightArm  -15.8497 -22.1738 29.7112
RightForeArm  6.00496 41.6136 9.56279
RightHand  -0.138835 -4.78337 -25.4344
LeftUpLeg  -9.20516 23.3534 5.99805
LeftLeg  24.2022 -12.5827 -5.79223
LeftFoot  12.0429 3.63111 -17.7837
LeftToes  1.24767e-006 1.47042e-008 1.32732e-009
536
root  -5.1538 42.4234 69.6755 -158.631 -78.2851 155.224
RightUpLeg  1.85266 -16.9449 -12.0102
RightLeg  16.5975 17.167 6.08131
RightFoot  9.08528 -2.36905 13.4651
RightToes  -1.46203e-006 3.27826e-006 1.63871e-007
Spine  3.93457 -1.90351 -3.90465
Spine1  10.2718 -2.38722 1.07592
HEad  -17.1526 -48.127 17.0101
LeftShoulder1  1.72136 -2.82611 -20.7851
LeftArm  13.233 19.7214 -46.1912
LeftForeArm  89.1521 -79.2782 -99.6985
LeftHand  0.182951 7.49312 11.2988
RightShoulder  3.29866 5.44293 30.9799
RightArm  -1.887 -22.9783 31.5149
RightForeArm  -9.44191 18.0533 6.95392
RightHand  -0.197673 -4.21144 -15.1497
LeftUpLeg  -5.59922 22.5259 6.31384
LeftLeg  17.7265 -11.6152 -4.16265
LeftFoot  11.9162 3.91661 -19.1915
LeftToes  1.24767e-006 1.47042e-008 1.32732e-009
537
root  -5.27203 43.1916 70.172 -160.108 -76.1993 157.227
RightUpLeg  -0.932258 -14.0007 -13.8159
RightLeg  17.9797 18.8146 6.56785
RightFoot  14.9314 -4.64725 20.3161
RightToes  -1.46203e-006 3.27826e-006 1.63871e-007
Spine  3.40867 -0.746953 -5.23582
Spine1  10.1914 -1.5708 1.54621
HEad  -17.1266 -47.4618 15.7334
LeftShoulder1  1.77225 -3.11746 -20.3334
LeftArm  14.485 22.2309 -45.3229
LeftForeArm  103.386 -78.6189 -112.757
LeftHand  0.00855093 5.90785 7.69609
RightShoulder  3.52184 5.77766 32.0635
RightArm  -10.9531 -24.3681 31.5947
RightForeArm  18.1481 2.31728 13.6392
RightHand  -0.0359349 -5.55003 0.165746
LeftUpLeg  -3.1378 16.5021 6.65615
LeftLeg  15.7857 -1.64634 -2.29004
LeftFoot  11.0219 2.77272 -14.3413
LeftToes  1.24767e-006 1.47042e-008 1.32732e-009
538
root  -5.34299 43.2787 70.7273 -159.694 -76.4479 156.588
RightUpLeg  -2.24803 -10.0035 -15.7622
RightLeg  20.5139 17.1547 6.76973
RightFoot  14.5051 -3.78912 16.9068
RightToes  -1.46203e-006 3.27826e-006 1.63871e-007
Spine  3.51297 -0.731115 -5.60169
Spine1  11.2393 -1.89852 2.21179
HEad  -19.5009 -46.8919 16.1956
LeftShoulder1  1.71982 -3.18444 -19.2028
LeftArm  16.491 21.049 -43.946
LeftForeArm  109.539 -77.5865 -121.464
LeftHand  0.0374663 6.2615 8.14494
RightShoulder  3.69039 6.04497 32.7676
RightArm  -3.41365 -29.797 34.7479
RightForeArm  31.6865 5.38844 12.6607
RightHand  -0.152891 -6.48129 10.6482
LeftUpLeg  -1.30327 11.5706 6.63552
LeftLeg  14.4923 5.41584 -0.949027
LeftFoot  15.64 2.58213 -11.1695
LeftToes  1.24767e-006 1.47042e-008 1.32732e-009
539
root  -5.43403 42.8438 71.4175 -159.604 -77.6345 156.554
RightUpLeg  -2.80144 -5.79766 -17.2939
RightLeg  20.7574 9.35531 3.69401
RightFoot  10.7428 -1.00428 5.52239
RightToes  -1.46203e-006 3.27826e-006 1.63871e-007
Spine  3.8029 -1.45787 -4.29301
Spine1  11.8586 -2.56996 2.12159
HEad  -21.8801 -46.4049 17.549
LeftShoulder1  1.54866 -2.81932 -17.8806
LeftArm  17.4029 17.9529 -42.0865
LeftForeArm  114.476 -76.7993 -126.73
LeftHand  0.071651 6.75231 8.31679
RightShoulder  3.78386 6.15812 33.2815
RightArm  12.044 -36.9279 38.5166
RightForeArm  22.1938 15.6175 8.88558
RightHand  -0.130583 -6.18287 12.1869
LeftUpLeg  0.873522 8.0796 6.94701
LeftLeg  11.257 9.25498 -0.794329
LeftFoot  20.6878 3.29095 -11.8833
LeftToes  1.24767e-006 1.47042e-008 1.32732e-009
540
root  -5.49728 41.7201 72.1079 -158.666 -78.13 156.508
RightUpLeg  -4.44025 -2.31554 -19.4476
RightLeg  20.4211 -2.96238 -1.4423
RightFoot  6.80223 0.813269 -4.72332
RightToes  -1.46203e-006 3.27826e-006 1.63871e-007
Spine  3.76907 -2.17982 -3.9547
Spine1  11.3435 -3.38629 2.26606
HEad  -22.4638 -45.568 17.4454
LeftShoulder1  1.40063 -2.46018 -16.7878
LeftArm  15.5837 15.6654 -40.7995
LeftForeArm  118.337 -76.7539 -127.898
LeftHand  0.0507016 6.57195 7.56957
RightShoulder  3.86879 6.26324 33.7271
RightArm  21.2711 -43.2886 39.2308
RightForeArm  5.20435 23.5991 4.86134
RightHand  0.0712825 -4.00555 8.0147
LeftUpLeg  1.43462 9.45479 7.56181
LeftLeg  11.698 7.61031 -1.4606
LeftFoot  16.3385 3.45877 -14.4709
LeftToes  1.24767e-006 1.47042e-008 1.32732e-009
541
root  -5.40716 40.0201 72.6731 -155.351 -79.0989 153.861
RightUpLeg  -6.29239 -1.99347 -22.489
RightLeg  22.8735 -10.5107 -5.04674
RightFoot  3.98108 0.480051 -3.34487
RightToes  -1.46203e-006 3.27826e-006 1.63871e-007
Spine  4.08366 -2.8591 -5.94553
Spine1  11.733 -4.87865 4.06379
HEad  -24.9026 -44.1769 18.3698
LeftShoulder1  1.32993 -2.21691 -16.5298
LeftArm  12.5156 11.4764 -39.312
LeftForeArm  113.844 -77.4424 -123.573
LeftHand  0.0828033 6.94174 8.09283
RightShoulder  3.95864 6.35085 34.2822
RightArm  17.5734 -46.1174 36.8439
RightForeArm  3.46612 29.7153 6.24026
RightHand  0.24125 -2.12363 9.13642
LeftUpLeg  -1.1032 18.8171 8.06368
LeftLeg  19.3236 -4.04453 -2.90282
LeftFoot  1.64002 1.86363 -16.3388
LeftToes  1.24767e-006 1.47042e-008 1.32732e-009
542
root  -5.09824 38.2806 72.9571 -147.239 -80.8166 145.291
RightUpLeg  -7.4858 -2.99986 -24.9645
RightLeg  28.7305 -12.5905 -7.59875
RightFoot  -0.569139 -0.626392 6.7931
RightToes  -1.46203e-006 3.27826e-006 1.63871e-007
Spine  5.56635 -3.43296 -10.4645
Spine1  13.7944 -7.12298 7.55029
HEad  -29.5834 -42.4824 21.6137
LeftShoulder1  1.35588 -2.10885 -17.517
LeftArm  9.58547 4.76732 -36.6583
LeftForeArm  92.5112 -79.1 -103.923
LeftHand  0.199116 7.51422 12.0563
RightShoulder  4.01062 6.28891 35.0593
RightArm  15.1803 -41.2807 35.8892
RightForeArm  3.6515 29.1797 6.03303
RightHand  0.535154 -0.65395 13.2385
LeftUpLeg  -6.07045 22.1026 7.36135
LeftLeg  30.5792 -8.98775 -5.22374
LeftFoot  -11.4082 0.0771756 -14.293
LeftToes  1.24767e-006 1.47042e-008 1.32732e-009
543
root  -4.8635 37.2307 72.916 -138.319 -81.7382 135.419
RightUpLeg  -7.66042 -4.27551 -26.2827
RightLeg  33.0793 -12.7973 -9.05814
RightFoot  -5.70123 -0.730368 13.9708
RightToes  -1.46203e-006 3.27826e-006 1.63871e-007
Spine  6.68187 -4.03397 -14.8438
Spine1  15.9286 -9.23881 10.1345
HEad  -30.9192 -41.6981 23.0803
LeftShoulder1  1.47862 -2.29889 -18.9451
LeftArm  8.04922 2.16653 -35.0886
LeftForeArm  54.1708 -78.2877 -63.9411
LeftHand  0.414623 7.89717 19.6421
RightShoulder  4.00076 6.16826 35.4623
RightArm  7.04417 -31.2789 37.1168
RightForeArm  3.4191 21.0307 5.66126
RightHand  0.202589 -1.94332 7.29234
LeftUpLeg  -9.08163 20.8635 6.65131
LeftLeg  37.3518 -7.30925 -5.56227
LeftFoot  -16.3048 -0.432049 -12.1781
LeftToes  1.24767e-006 1.47042e-008 1.32732e-009
